<svg width="2129" height="642" viewBox="0 0 2129 642" fill="none" xmlns="http://www.w3.org/2000/svg">
<path d="M76.2 522V196.2C76.2 174.2 81 154.8 90.6 138C100.6 121.2 114.2 108 131.4 98.4C149 88.8 169.2 84 192 84C209.6 84 224.6 87 237 93C249.4 99 261 107.6 271.8 118.8L229.2 161.4C224.4 156.6 219.2 152.8 213.6 150C208 147.2 200.8 145.8 192 145.8C176 145.8 163.6 150.2 154.8 159C146.4 167.4 142.2 179.6 142.2 195.6V522H76.2ZM7.2 294V234H229.2V294H7.2ZM250.045 522V234H316.045V522H250.045ZM316.045 361.8L293.245 350.4C293.245 314 301.245 284.6 317.245 262.2C333.645 239.4 358.245 228 391.045 228C405.445 228 418.445 230.6 430.045 235.8C441.645 241 452.445 249.4 462.445 261L419.245 305.4C414.045 299.8 408.245 295.8 401.845 293.4C395.445 291 388.045 289.8 379.645 289.8C361.245 289.8 346.045 295.6 334.045 307.2C322.045 318.8 316.045 337 316.045 361.8ZM601.392 528C572.592 528 546.592 521.6 523.392 508.8C500.592 495.6 482.392 477.6 468.792 454.8C455.592 432 448.992 406.4 448.992 378C448.992 349.6 455.592 324.2 468.792 301.8C481.992 279 499.792 261 522.192 247.8C544.992 234.6 570.192 228 597.792 228C624.592 228 648.192 234.2 668.592 246.6C689.392 259 705.592 276 717.192 297.6C729.192 319.2 735.192 343.8 735.192 371.4C735.192 376.2 734.792 381.2 733.992 386.4C733.592 391.2 732.792 396.6 731.592 402.6H495.192V348.6H697.392L672.792 370.2C671.992 352.6 668.592 337.8 662.592 325.8C656.592 313.8 647.992 304.6 636.792 298.2C625.992 291.8 612.592 288.6 596.592 288.6C579.792 288.6 565.192 292.2 552.792 299.4C540.392 306.6 530.792 316.8 523.992 330C517.192 342.8 513.792 358.2 513.792 376.2C513.792 394.2 517.392 410 524.592 423.6C531.792 437.2 541.992 447.8 555.192 455.4C568.392 462.6 583.592 466.2 600.792 466.2C615.592 466.2 629.192 463.6 641.592 458.4C654.392 453.2 665.192 445.6 673.992 435.6L715.992 478.2C701.992 494.6 684.992 507 664.992 515.4C644.992 523.8 623.792 528 601.392 528ZM903.9 528C875.1 528 849.1 521.6 825.9 508.8C803.1 495.6 784.9 477.6 771.3 454.8C758.1 432 751.5 406.4 751.5 378C751.5 349.6 758.1 324.2 771.3 301.8C784.5 279 802.3 261 824.7 247.8C847.5 234.6 872.7 228 900.3 228C927.1 228 950.7 234.2 971.1 246.6C991.9 259 1008.1 276 1019.7 297.6C1031.7 319.2 1037.7 343.8 1037.7 371.4C1037.7 376.2 1037.3 381.2 1036.5 386.4C1036.1 391.2 1035.3 396.6 1034.1 402.6H797.7V348.6H999.9L975.3 370.2C974.5 352.6 971.1 337.8 965.1 325.8C959.1 313.8 950.5 304.6 939.3 298.2C928.5 291.8 915.1 288.6 899.1 288.6C882.3 288.6 867.7 292.2 855.3 299.4C842.9 306.6 833.3 316.8 826.5 330C819.7 342.8 816.3 358.2 816.3 376.2C816.3 394.2 819.9 410 827.1 423.6C834.3 437.2 844.5 447.8 857.7 455.4C870.9 462.6 886.1 466.2 903.3 466.2C918.1 466.2 931.7 463.6 944.1 458.4C956.9 453.2 967.7 445.6 976.5 435.6L1018.5 478.2C1004.5 494.6 987.5 507 967.5 515.4C947.5 523.8 926.3 528 903.9 528ZM1072.61 522V90H1138.61V522H1072.61ZM1348.26 528C1326.26 528 1306.66 523.4 1289.46 514.2C1272.26 504.6 1258.66 491.6 1248.66 475.2C1239.06 458.8 1234.26 440.2 1234.26 419.4V336.6C1234.26 315.8 1239.26 297.2 1249.26 280.8C1259.26 264.4 1272.86 251.6 1290.06 242.4C1307.26 232.8 1326.66 228 1348.26 228C1374.26 228 1397.66 234.8 1418.46 248.4C1439.66 261.6 1456.26 279.6 1468.26 302.4C1480.66 324.8 1486.86 350.2 1486.86 378.6C1486.86 406.6 1480.66 432 1468.26 454.8C1456.26 477.2 1439.66 495 1418.46 508.2C1397.66 521.4 1374.26 528 1348.26 528ZM1194.06 642V234H1260.06V311.4L1248.66 381.6L1260.06 451.2V642H1194.06ZM1337.46 465.6C1353.46 465.6 1367.46 462 1379.46 454.8C1391.86 447.2 1401.46 436.8 1408.26 423.6C1415.46 410.4 1419.06 395.2 1419.06 378C1419.06 360.8 1415.46 345.6 1408.26 332.4C1401.46 319.2 1391.86 309 1379.46 301.8C1367.46 294.2 1353.46 290.4 1337.46 290.4C1321.46 290.4 1307.26 294.2 1294.86 301.8C1282.46 309 1272.86 319.2 1266.06 332.4C1259.26 345.6 1255.86 360.8 1255.86 378C1255.86 395.2 1259.26 410.4 1266.06 423.6C1272.86 436.8 1282.46 447.2 1294.86 454.8C1307.26 462 1321.46 465.6 1337.46 465.6ZM1644.71 528C1618.71 528 1595.11 521.4 1573.91 508.2C1553.11 495 1536.51 477.2 1524.11 454.8C1512.11 432 1506.11 406.6 1506.11 378.6C1506.11 350.2 1512.11 324.8 1524.11 302.4C1536.51 279.6 1553.11 261.6 1573.91 248.4C1595.11 234.8 1618.71 228 1644.71 228C1666.71 228 1686.11 232.8 1702.91 242.4C1720.11 251.6 1733.71 264.4 1743.71 280.8C1753.71 297.2 1758.71 315.8 1758.71 336.6V419.4C1758.71 440.2 1753.71 458.8 1743.71 475.2C1734.11 491.6 1720.71 504.6 1703.51 514.2C1686.31 523.4 1666.71 528 1644.71 528ZM1655.51 465.6C1679.91 465.6 1699.51 457.4 1714.31 441C1729.51 424.6 1737.11 403.6 1737.11 378C1737.11 360.8 1733.71 345.6 1726.91 332.4C1720.11 319.2 1710.51 309 1698.11 301.8C1686.11 294.2 1671.91 290.4 1655.51 290.4C1639.51 290.4 1625.31 294.2 1612.91 301.8C1600.91 309 1591.31 319.2 1584.11 332.4C1577.31 345.6 1573.91 360.8 1573.91 378C1573.91 395.2 1577.31 410.4 1584.11 423.6C1591.31 436.8 1600.91 447.2 1612.91 454.8C1625.31 462 1639.51 465.6 1655.51 465.6ZM1732.91 522V444.6L1744.31 374.4L1732.91 304.8V234H1798.91V522H1732.91ZM1947.15 525L1824.15 234H1896.75L1980.75 447.6H1959.75L2048.55 234H2121.75L1987.95 525H1947.15ZM1861.35 642L1950.75 457.8L1987.95 525L1934.55 642H1861.35Z" fill="white"/>
</svg>
